<svg width="36" height="42" viewBox="0 0 36 42" fill="none" xmlns="http://www.w3.org/2000/svg">
<path d="M9.74379 32.4671V33.0658C9.74379 31.1316 9.74379 29.1513 9.78984 27.171C9.69774 28.7368 9.60563 30.3947 9.55958 32.0526C9.51353 32.8816 9.51353 33.7105 9.51353 34.4934C9.51353 34.9079 9.51353 35.2763 9.51353 35.6908C9.51353 35.7829 9.51353 35.7829 9.55958 35.875C9.46748 35.9211 9.60563 35.9211 8.91484 35.9671C8.77669 35.9671 8.63853 36.0132 8.54642 36.0132L8.13195 36.1053C7.85563 36.1513 7.57932 36.2434 7.34905 36.3355C7.11879 36.1974 5.82932 36.4276 4.72405 37.0263C4.17142 37.3026 3.66484 37.6711 3.34248 37.9474C3.15826 38.0855 3.02011 38.2237 2.928 38.3158C2.8359 38.3618 2.78984 38.4539 2.74379 38.5C2.69774 38.5461 2.65169 38.5921 2.65169 38.5921C2.37537 38.8684 2.09905 39.1908 1.86879 39.5132C1.63853 39.7895 1.40826 40.1118 1.22405 40.3882L0.671423 41.2171L0.395107 41.6316L0.303001 41.7237L0.256949 41.7697H0.303001H0.579317H0.395107H0.303001H0.256949C0.256949 41.7697 0.256949 41.7697 0.256949 41.7237C0.256949 41.7237 0.210896 41.7697 0.256949 41.7697H0.303001H0.395107H0.579317C1.13195 41.8158 1.63853 41.8618 2.19116 41.8618C2.8359 41.8618 3.43458 41.8618 4.07932 41.8158C4.81616 41.8158 5.59905 41.7697 6.3359 41.7697C7.80958 41.7697 9.28327 41.7237 10.803 41.7697C13.8425 41.7697 16.928 41.8158 20.1056 41.9079C20.8425 41.9079 21.8096 41.9079 22.9609 41.9539C24.3885 41.9539 26.0004 42 27.7043 42C27.7043 39.8355 27.7504 37.5329 27.7504 35.4605C27.7964 33.7105 27.7964 32.1447 27.8425 31.0855C27.8425 30.5789 27.8425 30.0263 27.8885 29.5197C27.8425 30.3947 27.8425 30.3947 27.8425 31.2697C27.7504 29.0592 27.7043 27.0789 27.6122 25.1908C27.5662 25.5132 27.5201 25.6053 27.4741 26.3882L27.5201 25.4211C27.382 24.5461 27.382 22.4737 27.3359 21.5066C27.382 21.7368 27.428 20.9539 27.428 20.2632L27.382 20.5395C27.428 17.9605 27.3359 15.0132 27.382 12.7105C27.382 12.3882 27.428 12.1579 27.428 12.0197L27.382 9.80921C27.4741 9.99342 27.4741 8.01316 27.5201 9.02631C27.4741 8.28947 27.4741 7.55263 27.428 6.81579C27.428 6.44737 27.428 6.07895 27.428 5.75658C27.428 5.61842 27.428 5.43421 27.382 5.25L27.6122 5.20395C27.8425 5.20395 28.1188 5.20395 28.3491 5.20395C28.6714 5.20395 29.0859 5.15789 29.4543 5.15789C30.1912 5.06579 30.9741 4.92763 31.6648 4.65132C32.4017 4.375 33.0925 3.96053 33.6451 3.45395C33.7833 3.31579 33.9214 3.17763 34.0596 3.03947C34.1517 2.99342 34.1977 2.90132 34.2438 2.80921L34.4741 2.5329C34.6583 2.34868 34.7964 2.11842 34.9346 1.88816C35.0727 1.65789 35.2109 1.47368 35.303 1.24342C35.3951 1.01316 35.4872 0.828947 35.5793 0.598684L35.7175 0.276316L35.7635 0.0921052H35.7175H35.6254L34.9346 0.0460528C34.7043 0.0460528 34.5201 0 34.1977 0L31.6648 0.0460528C30.1912 0.0921054 28.7635 0.0921053 27.2898 0.138158L27.428 0.184211C25.4017 0.230263 23.6056 0.414474 21.1648 0.368421C19.4148 0.506579 16.928 0.552632 16.2372 0.736842C14.2109 0.782895 13.382 0.875 11.4017 0.921053C11.9083 1.01316 9.46748 1.01316 10.4346 1.10526C11.7701 1.24342 11.8162 1.10526 12.9214 1.24342L12.8754 1.19737C18.0793 1.33553 23.3293 1.42763 28.6254 1.47368C29.5004 1.47368 30.4214 1.47368 31.3425 1.42763C31.9872 1.42763 32.632 1.42763 33.2767 1.42763C33.5991 1.33553 33.3688 1.65789 33.2767 1.79605L33.2306 1.84211C33.1385 1.93421 33.0925 1.98026 33.0004 2.07237C32.8622 2.21053 32.7241 2.34868 32.5398 2.48684C32.4017 2.625 32.2175 2.7171 32.0333 2.85526L31.8951 2.90132L31.6188 3.03947C30.928 3.40789 30.1451 3.63816 29.3622 3.73026C28.9477 3.73026 28.5793 3.77632 28.0727 3.77632C27.3359 3.77632 26.6451 3.77632 25.9083 3.77632C25.9083 5.15789 25.9543 6.49342 25.9543 7.82895C25.9543 8.88816 26.0004 9.85526 26.0004 10.8224C26.0464 11.6513 25.9543 12.2039 25.9083 12.8947C25.9083 16.0263 25.9543 19.9868 25.9543 23.4868C25.9543 23.4408 25.9543 23.3487 25.9543 23.3026C25.9543 25.1908 25.8622 26.5724 25.9083 28.4145C25.9543 28.4145 25.9543 28.6908 25.9543 28.8289C25.9083 28.9671 25.9543 31.6842 26.0464 34.4013C26.0925 35.7829 26.0925 37.1184 26.1385 38.2237C26.1846 39.2829 26.1846 40.1579 26.1385 40.0658C26.1385 40.1579 26.1385 40.25 26.1385 40.3421V40.4342C24.4346 40.3882 22.7306 40.3421 21.0267 40.25C19.1846 40.2039 17.3885 40.1579 15.7767 40.1579C15.0398 40.2039 14.257 40.25 13.6583 40.3421C13.0596 40.2961 12.9675 40.3882 12.2767 40.3882C10.4806 40.1579 9.42142 40.25 10.3425 40.3421C8.86879 40.3882 7.39511 40.3421 6.10563 40.3421C5.50695 40.3421 4.90826 40.3882 4.26353 40.3882C3.98721 40.3882 3.89511 40.3882 3.803 40.2961C3.52669 40.2961 3.43458 40.2961 3.34248 40.2961H3.29642C3.25037 40.2961 3.29642 40.25 3.34248 40.25C3.38853 40.2039 3.48063 40.1118 3.57274 40.0197C3.61879 39.9737 3.66484 39.9276 3.75695 39.8355C3.803 39.7895 3.84905 39.7434 3.89511 39.6974L3.98721 39.6053L4.03326 39.5592L4.07932 39.5132L4.17142 39.4211C4.49379 39.1447 4.77011 38.8684 5.04642 38.6382C5.32274 38.4539 5.50695 38.3158 5.59906 38.2697L5.41484 38.4079C6.05958 38.0395 6.65827 37.8553 7.2109 37.7171C7.34906 37.6711 7.48721 37.6711 7.62537 37.6711C7.76353 37.625 7.90169 37.625 8.0859 37.625C8.22405 37.625 8.36221 37.625 8.54642 37.625C8.73063 37.625 8.91484 37.625 9.09906 37.625C9.78984 37.625 10.5267 37.625 11.2175 37.625C11.2175 33.3421 11.2175 28.8289 11.2175 24.9145C11.1254 24.8684 11.2175 25.7895 11.1254 25.8355C11.1254 23.4408 11.2635 21.0461 11.2635 18.6053C11.3096 18.1908 11.3096 17.6382 11.3556 17.4539C11.4017 16.6711 11.3096 16.9934 11.3096 16.4408L11.4017 16.3487C11.3556 15.5197 11.4938 15.1513 11.4477 14.3684C11.4017 14.3224 11.4017 14.0461 11.4017 13.7697C11.4938 13.7697 11.4017 12.9408 11.4938 12.9408C11.4938 12.7566 11.4938 12.6645 11.4938 12.4342C11.4477 12.1118 11.2175 9.16447 11.2175 8.8421V8.70395C11.2175 8.24342 11.1714 8.05921 11.1254 8.33553V7.7829V7.82895V7.27632C11.1254 7.18421 11.1714 7.04605 11.2175 7.23026C11.1714 6.90789 11.1714 6.58553 11.1714 6.26316C11.1254 7.13816 11.0333 8.19737 10.9412 9.07237C10.8951 8.70395 10.9412 8.05921 10.9412 7.64474C10.9872 7.18421 11.0333 6.17105 11.0793 5.43421C11.0793 5.25 10.9872 5.15789 11.0333 4.78947C11.0793 4.60526 11.0333 4.375 11.0793 4.05263C11.1254 4.42105 11.0793 4.78947 11.0793 5.15789C11.1714 5.11184 11.1254 4.28289 11.1714 3.96053C11.1254 3.82237 11.1714 3.13158 11.1714 2.67105C11.2635 2.85526 11.2175 2.30263 11.2635 2.02632C11.2635 1.70395 11.2635 1.51974 11.2175 1.65789C11.1254 1.56579 11.1714 2.85526 11.0793 2.44079C11.1254 2.34868 11.1254 1.75 11.0793 1.42763C11.0333 1.42763 11.0333 1.65789 10.9872 1.42763C10.9872 1.05921 10.9412 0.69079 10.9872 0.506579C10.9872 0.552632 10.9872 0.736842 10.9872 0.828947C10.9872 0.368421 11.2635 3.31579 11.2635 2.71711C11.2175 2.85526 10.9872 0.0921055 10.9872 0.414474C10.9872 0.69079 10.8951 0.230263 10.8951 0.506579L10.9412 0.828947C10.9412 1.24342 10.8491 1.38158 10.803 1.24342C10.803 0.598684 11.0793 3.13158 11.0333 2.57895V2.80921C10.9872 2.57895 10.9872 1.93421 11.0333 1.65789C10.9872 1.65789 10.9872 1.33553 10.9412 1.05921V0.967105C10.9412 0.69079 10.9412 0.322368 10.8951 0.460526C10.8951 2.07237 10.4806 -0.598684 10.4346 0.967105C10.5267 0.322369 10.5267 1.19737 10.5267 1.88816C10.4806 1.93421 10.4346 2.25658 10.4346 2.76316C10.4346 3.17763 10.4806 3.03947 10.4806 3.08553C10.4806 3.31579 10.4346 3.77632 10.3885 3.73026C10.4346 4.05263 10.3425 4.28289 10.3885 4.65132C10.4346 5.01974 10.4346 4.60526 10.4346 4.88158C10.4346 5.43421 10.4346 6.17105 10.3885 6.58553C10.3425 6.76974 10.2504 7.23026 10.2043 6.90789C10.2043 6.07895 10.3425 7.23026 10.2964 6.35526C10.2043 6.72368 10.2504 5.61842 10.2043 5.43421C10.1583 5.71053 10.1583 6.26316 10.1583 6.72368V6.63158C10.1583 7.04605 10.2043 7.82895 10.1583 8.28947C10.1122 8.19737 10.1122 8.38158 10.0662 8.05921V8.61184C10.0662 8.70395 10.1122 8.75 10.1122 8.61184C10.1583 8.88816 10.1122 9.11842 10.1122 9.34868C10.0662 9.39474 10.2964 12.2961 10.2504 12.2039C10.2504 12.6184 10.2043 12.7105 10.2504 13.0789C10.2504 13.0789 10.2504 12.8487 10.2504 12.5263C10.2504 12.1579 10.2043 11.6974 10.2043 11.2829C10.1583 10.4079 10.1122 9.57895 10.1583 9.80921C10.1122 10.1316 10.3425 14.3224 10.2964 14.5526C10.2964 14.8289 10.2964 15.1974 10.3425 15.1513C10.3425 15.6579 10.2504 15.0132 10.2504 15.3355C10.2504 15.3355 10.2504 15.2895 10.2504 15.4276L10.2043 15.75C10.2504 16.5329 10.2043 17.6382 10.2504 18.4671C10.2043 18.2368 10.1122 17.9605 10.1122 17.4539V17.3618C10.1122 17.2697 10.0662 16.8553 10.0662 16.8553C10.0201 17.3618 10.0662 17.7763 10.0662 18.2829C10.0662 18.375 10.0201 18.4671 10.0201 18.5592C9.97406 18.7434 9.97406 18.6974 9.97406 18.6513C9.97406 18.6513 9.97406 18.6513 9.97406 18.6053C9.8359 18.9276 10.0662 20.5395 9.97406 21.4605C9.97406 21.7368 9.97406 21.5066 10.0201 21.8289C9.97406 22.75 9.928 23.3947 9.928 24.3618C9.97405 24.6842 10.0201 24.6842 10.0662 24.3158V25.0526C9.928 24.4079 9.928 26.4342 9.78984 25.6974C9.74379 25.9276 9.74379 26.3421 9.78984 26.7566C9.8359 26.8026 9.88195 26.8487 9.88195 27.3553C9.8359 28.0921 9.8359 27.9079 9.78984 28.5066C9.74379 28.6447 9.74379 28.4145 9.69774 28.4605C9.74379 29.3816 9.60563 29.2434 9.60563 30.1184C9.60563 30.6711 9.60563 31.7303 9.69774 31.7303C9.8359 32.5592 9.78985 32.5592 9.74379 32.4671Z" fill="black" fill-opacity="0.9"/>
<path d="M10.5267 0.460541V36.8421H8.54644C4.63196 36.8421 1.8688 41.0329 1.8688 41.0329H26.7833V4.60528H28.5793C33.7372 4.60528 35.1649 0.506594 35.1649 0.506594L10.5267 0.460541ZM14.3491 4.60528H22.7767V36.8421H14.3491V4.60528Z" fill="black" fill-opacity="0.9"/>
<path d="M21.9938 14.4605V14.7829C21.9938 13.6776 21.9938 12.5263 22.0399 11.4211C21.7636 13.8618 21.5333 16.8092 22.0859 18.6974C21.8096 18.8816 21.6715 21.2763 21.7175 21.3224C21.7636 21.829 21.8096 22.3355 21.8557 22.8421C22.0859 26.0658 21.9938 29.5197 21.8557 33.1579C21.8557 33.5724 21.8557 34.125 21.8096 34.7237C21.8096 35.0461 21.8096 35.3684 21.8096 35.7368C21.8096 35.7829 21.8096 35.829 21.8096 35.9211H21.6715H21.6254C21.6254 35.9211 21.6254 35.9211 21.5794 35.9211H21.4873H21.0728C20.5201 35.9211 19.9675 35.9211 19.4609 35.875C18.4478 35.875 17.5267 35.829 16.928 35.7829C16.6517 35.7829 16.3294 35.7829 16.053 35.7368C16.5596 35.7829 16.5596 35.7829 17.0662 35.7829C16.5596 35.829 16.0991 35.829 15.6386 35.875H15.4544C15.4083 35.875 15.4083 35.875 15.4083 35.875H15.3623C15.3162 35.875 15.2701 35.9211 15.2241 35.9211C15.2241 35.875 15.178 35.829 15.178 35.7829C15.132 35.829 15.0859 35.875 15.0399 36.0592L15.0859 35.829C15.0399 35.7829 15.0399 35.7368 14.9938 35.6447C14.9938 35.4605 14.9478 35.2303 14.9478 35.0461C14.9478 34.6316 14.9017 34.1711 14.9017 33.8947C14.9478 34.0329 14.9938 33.5724 14.9938 33.204L14.9478 33.3421C14.9938 31.8684 14.9017 30.2105 14.9478 28.875C14.9478 28.6908 14.9938 28.5526 14.9938 28.4605L14.9478 27.2171C15.0399 27.3092 15.0399 26.1579 15.0859 26.7566C14.9938 25.8355 15.0399 24.8684 14.9478 23.9934C14.9478 20.8158 14.8557 17.4079 14.7175 14.0921L14.6715 14.1842C14.6254 13.0329 14.4412 12.0197 14.4873 10.5921C14.3491 9.57895 14.303 8.15132 14.1188 7.7829C14.0728 6.63158 13.9807 6.17106 13.9346 5.01974C13.8425 5.29606 13.8425 3.91448 13.7504 4.46711C13.6123 5.20395 13.7504 5.25 13.6123 5.89474H13.6583C13.5201 8.88816 13.428 11.8355 13.382 14.875C13.4741 16.9013 13.382 19.0658 13.428 21.1842C13.4741 23.4408 13.5201 25.8816 13.6123 27.8158C13.6583 28.2763 13.5662 28.5987 13.5201 29.0132C13.5662 30.8092 13.5201 33.0658 13.5662 35.0461C13.5662 35 13.5662 34.954 13.5662 34.954C13.5662 35.1382 13.5662 35.2763 13.5662 35.4145C13.5662 35.6447 13.5662 35.829 13.5662 36.0132C13.5662 36.5197 13.5662 36.9803 13.5201 37.4868C14.1188 37.4868 14.7636 37.5329 15.4083 37.4868C15.4083 37.4408 15.5465 37.4408 15.6386 37.4408C15.7307 37.4868 17.2504 37.4408 18.8162 37.3487C19.5991 37.3026 20.382 37.3026 20.9807 37.2566C21.1188 37.2566 21.257 37.2566 21.3951 37.2566C21.5333 37.2566 21.7175 37.2566 21.8096 37.2566C22.0859 37.2566 22.3162 37.2566 22.3623 37.2566C22.5004 37.2566 22.6846 37.2566 22.8688 37.2566H23.2373C23.2373 36.8421 23.2373 36.4737 23.2833 36.0592V35.5066V35.0921C23.3294 34.5395 23.3294 34.0329 23.3754 33.5263C23.4215 32.4671 23.4675 31.5 23.4675 30.579C23.4215 30.1645 23.3754 29.704 23.2833 29.3816C23.3294 29.0592 23.2373 28.9671 23.2373 28.5987C23.4675 27.5855 23.3754 26.9868 23.2833 27.4934C23.2373 26.6645 23.2833 25.7895 23.2833 25.0526C23.2833 24.6842 23.2373 24.3618 23.2373 23.9934C23.2373 23.7171 23.2373 23.5329 23.3294 23.3947C23.2833 22.6579 23.3754 22.8421 23.3754 22.0592C23.4675 21.875 23.2373 20.079 23.2833 19.8487V19.9868C23.2833 19.0658 23.4675 18.4671 23.4675 17.5461C23.5136 15.0592 23.4675 12.3421 23.5136 9.99343C23.4215 9.99343 23.5136 10.5 23.4215 10.5461C23.4215 9.16448 23.5596 7.7829 23.5596 6.44737C23.6057 6.21711 23.6057 5.89474 23.6517 5.80264C23.6517 5.61843 23.6517 5.43422 23.6517 5.34211C23.6517 5.25 23.6057 5.20395 23.6057 4.88158L23.6978 4.78948C23.6517 4.2829 23.6978 3.86843 23.7438 3.45395C23.5136 3.45395 23.2373 3.4079 22.8688 3.4079C22.8228 3.45395 22.5004 3.45395 22.178 3.45395C22.178 3.4079 21.9478 3.4079 21.7175 3.4079C21.6715 3.4079 21.6254 3.4079 21.5794 3.4079C21.5333 3.4079 21.5333 3.4079 21.4873 3.4079C21.4412 3.4079 21.4412 3.4079 21.4412 3.36185C21.3491 3.36185 21.257 3.36185 21.1649 3.36185C20.9807 3.4079 19.3228 3.63816 19.0925 3.63816H19.0004C18.7701 3.63816 18.632 3.68421 18.7701 3.73027H18.4478H18.4938H18.1715C18.1254 3.73027 18.0333 3.68422 18.1254 3.63816C17.9412 3.68422 17.757 3.68422 17.5728 3.68422C18.0794 3.73027 18.678 3.82237 19.1846 3.91448C18.9544 3.96053 18.5859 3.91448 18.3557 3.91448C18.0794 3.86843 17.5267 3.82237 17.1123 3.77632C17.0201 3.77632 16.928 3.86843 16.7438 3.82237C16.6517 3.77632 16.5136 3.82237 16.3294 3.77632C16.5136 3.73027 16.7438 3.77632 16.928 3.77632C16.882 3.68422 16.4215 3.73027 16.2373 3.68422C16.1451 3.73027 15.7767 3.68422 15.5004 3.68422C15.5925 3.59211 15.3162 3.63816 15.132 3.59211C14.9478 3.59211 14.8557 3.59211 14.9017 3.63816C14.8557 3.73027 15.5925 3.68422 15.3623 3.77632C15.3162 3.73027 14.9478 3.73027 14.7636 3.77632C14.7636 3.82237 14.9017 3.82237 14.7636 3.86843C14.5794 3.86843 14.3491 3.91448 14.2109 3.86843C14.257 3.86843 14.3491 3.86843 14.3951 3.86843C14.1188 3.86843 15.8228 3.59211 15.4544 3.59211C15.5465 3.63816 13.9807 3.86843 14.1188 3.86843C14.257 3.86843 14.0267 3.96053 14.1649 3.96053L14.3491 3.91448C14.5794 3.91448 14.6715 4.00658 14.5794 4.05264C14.2109 4.05264 15.6386 3.77632 15.3162 3.82237H15.4544C15.3162 3.86843 14.9478 3.86843 14.8096 3.82237C14.8096 3.86843 14.6254 3.86843 14.4873 3.91448H14.4412C14.303 3.91448 14.0728 3.91448 14.1649 3.96053C15.0859 3.96053 13.5662 4.375 14.4412 4.42106C14.0728 4.32895 14.5794 4.32895 14.9478 4.32895C14.9938 4.37501 15.178 4.42106 15.4544 4.42106C15.6846 4.42106 15.5925 4.37501 15.6386 4.37501C15.7767 4.37501 16.053 4.42106 16.007 4.46711C16.1912 4.42106 16.3294 4.51316 16.5596 4.46711C16.7438 4.42106 16.5596 4.42106 16.6978 4.42106C17.0201 4.42106 17.4346 4.42106 17.6649 4.46711C17.757 4.51316 18.0333 4.60527 17.8491 4.65132C17.3886 4.65132 18.0333 4.51316 17.5267 4.55922C17.7109 4.65132 17.1123 4.60527 17.0201 4.65132C17.1583 4.69737 17.4807 4.69737 17.757 4.69737H17.7109C17.9412 4.69737 18.4017 4.65132 18.632 4.69737C18.5859 4.74343 18.678 4.74343 18.4938 4.78948H18.8162C18.8623 4.78948 18.9083 4.74343 18.8162 4.74343C18.9544 4.69737 19.0925 4.74343 19.2307 4.74343C19.2767 4.78948 20.8886 4.55922 20.8425 4.60527C21.0728 4.60527 21.1188 4.65132 21.3491 4.60527C21.3951 4.55922 19.1846 4.74343 19.4609 4.74343C19.6451 4.78948 22.0399 4.55922 22.132 4.60527C22.2701 4.60527 22.5004 4.60527 22.5004 4.55922C22.5004 4.83553 22.4083 4.55922 22.4083 4.78948C22.4083 4.78948 22.4083 4.74343 22.4083 4.83553L22.3623 5.06579C22.4083 5.25001 22.4083 5.48027 22.4083 5.71053C22.4083 5.98685 22.4083 6.26316 22.4544 6.49343C22.4083 6.35527 22.3162 6.21711 22.3162 5.89474V5.84869C22.3162 5.84869 22.3162 5.75658 22.3162 5.71053C22.3162 5.66448 22.2701 5.61843 22.2701 5.61843C22.2701 5.71053 22.2701 5.84869 22.2701 5.98685C22.2701 6.12501 22.2701 6.26316 22.3162 6.40132C22.3162 6.44737 22.2701 6.49343 22.2701 6.58553C22.2241 6.67764 22.2241 6.67764 22.2241 6.63158C22.0859 6.81579 22.3162 7.73685 22.2241 8.24343C22.2241 8.38158 22.2241 8.24343 22.2701 8.42764C22.2241 8.93422 22.178 9.30264 22.178 9.85527C22.2241 10.0395 22.2701 10.0395 22.3162 9.85527V10.2697C22.178 9.90132 22.178 11.0526 22.0399 10.6382C21.9938 10.7763 21.9938 11.0066 22.0399 11.2368C22.0859 11.2829 22.132 11.2829 22.132 11.6053C22.2241 11.9737 22.2701 11.8816 22.2241 12.204C22.178 12.2961 22.178 12.1579 22.132 12.1579C22.178 12.6645 22.0399 12.6184 22.0399 13.125C22.0399 13.4474 22.0399 14.0461 22.132 14.0461C22.132 14.5066 22.0859 14.5066 21.9938 14.4605Z" fill="black" fill-opacity="0.9"/>
<path d="M10.5267 0.460541V36.8421H8.54644C4.63196 36.8421 1.8688 41.0329 1.8688 41.0329H26.7833V4.60528H28.5793C33.7372 4.60528 35.1649 0.506594 35.1649 0.506594L10.5267 0.460541ZM14.3491 4.60528H22.7767V36.8421H14.3491V4.60528Z" fill="black" fill-opacity="0.9"/>
</svg>
