<?xml version="1.0" standalone="no"?>
<!DOCTYPE svg PUBLIC "-//W3C//DTD SVG 20010904//EN"
 "http://www.w3.org/TR/2001/REC-SVG-20010904/DTD/svg10.dtd">
<svg version="1.0" xmlns="http://www.w3.org/2000/svg"
 width="672.000000pt" height="672.000000pt" viewBox="0 0 672.000000 672.000000"
 preserveAspectRatio="xMidYMid meet">
<metadata>
Created by potrace 1.14, written by Peter Selinger 2001-2017
</metadata>
<g transform="translate(0.000000,672.000000) scale(0.100000,-0.100000)"
fill="#000000" stroke="none">
<path d="M5526 6713 c-1 -1 -63 -3 -138 -5 -82 -1 -134 -6 -131 -12 4 -5 1 -6
-8 -1 -17 11 -229 13 -229 2 0 -4 -9 -3 -20 3 -11 6 -20 7 -20 3 0 -4 -27 -7
-60 -6 -33 1 -60 -1 -60 -5 0 -4 -37 -7 -83 -6 -45 0 -90 -3 -99 -8 -11 -5
-18 -5 -18 0 0 5 -12 7 -27 5 -65 -9 -588 -28 -618 -23 -5 1 -13 2 -16 2 -72
-8 -507 -14 -1092 -16 -815 -1 -763 3 -750 -65 5 -29 3 -33 -11 -28 -9 4 -16
2 -16 -3 0 -6 7 -10 15 -10 15 0 19 -21 16 -85 -8 -139 -12 -360 -13 -567 0
-137 -4 -248 -9 -248 -5 0 -9 -9 -9 -20 0 -21 -16 -28 -22 -10 -1 6 -2 -39 -1
-100 1 -60 -1 -110 -6 -110 -4 0 -8 -17 -7 -37 1 -27 5 -37 15 -35 11 2 12 0
3 -10 -6 -8 -11 -23 -11 -33 0 -11 0 -42 -1 -70 0 -27 3 -111 6 -185 4 -74 7
-154 8 -177 0 -24 4 -43 7 -43 3 0 6 -7 6 -15 0 -8 -3 -15 -6 -15 -3 0 -5 -28
-3 -62 1 -35 4 -139 7 -233 3 -93 7 -180 10 -192 3 -14 1 -23 -6 -23 -6 0 -9
-7 -5 -15 3 -8 2 -15 -2 -15 -10 0 -10 -86 0 -95 4 -4 4 -15 -1 -24 -9 -19 -7
-73 3 -90 4 -6 1 -11 -6 -11 -9 0 -9 -3 2 -10 8 -5 10 -10 5 -10 -6 0 -9 -34
-8 -85 1 -47 -2 -85 -6 -85 -5 0 -9 32 -10 72 -3 112 -11 94 -12 -28 -1 -60
-2 -119 -2 -131 -1 -12 -5 -19 -10 -16 -9 6 -2 -351 8 -367 3 -6 3 -10 -2 -10
-14 0 -6 -112 8 -121 12 -7 12 -9 0 -9 -9 0 -12 -8 -9 -25 3 -14 1 -25 -5 -25
-5 0 -5 -6 2 -13 6 -8 8 -17 4 -20 -3 -4 -8 -84 -10 -179 -2 -118 0 -168 7
-158 5 8 10 11 11 5 4 -46 3 -75 -3 -75 -9 0 -21 -63 -21 -107 0 -20 -5 -33
-13 -33 -17 0 -12 -153 5 -174 8 -10 9 -16 1 -21 -7 -4 -7 -12 0 -24 5 -10 7
-21 4 -23 -2 -3 -6 -35 -8 -71 -2 -37 -10 -74 -17 -84 -9 -11 -10 -14 -1 -9 6
4 12 2 12 -3 0 -6 -4 -11 -9 -11 -8 0 -12 -44 -15 -192 0 -32 -3 -58 -6 -58
-3 0 -5 -25 -5 -55 0 -30 4 -55 8 -55 5 0 5 -6 0 -12 -8 -15 -14 -181 -16
-473 -1 -120 -6 -203 -12 -207 -7 -5 -7 -8 0 -8 10 0 15 -124 5 -133 -3 -3
-32 -7 -65 -10 -33 -3 -71 -8 -85 -11 -14 -3 -38 -8 -55 -10 -16 -2 -56 -13
-88 -24 -32 -10 -60 -15 -63 -11 -2 4 -10 6 -17 4 -7 -3 -32 -7 -57 -9 -25 -2
-46 -5 -47 -6 -5 -4 -22 -7 -44 -9 -11 0 -17 -5 -14 -11 3 -5 0 -7 -8 -4 -8 3
-18 1 -21 -4 -3 -6 -15 -8 -26 -5 -11 3 -20 1 -20 -4 0 -5 -8 -9 -18 -10 -16
-1 -85 -33 -209 -97 -13 -6 -23 -14 -23 -18 0 -5 -5 -8 -11 -8 -6 0 -25 -11
-43 -25 -17 -14 -41 -34 -54 -43 -42 -32 -107 -97 -104 -104 1 -5 -2 -8 -7 -8
-16 0 -82 -73 -77 -85 2 -7 -1 -12 -7 -11 -7 0 -13 -2 -14 -6 -2 -5 -11 -16
-20 -26 -23 -24 -75 -90 -87 -111 -5 -9 -18 -25 -28 -35 -10 -11 -18 -25 -18
-32 0 -7 -3 -14 -7 -16 -12 -5 -53 -66 -53 -78 0 -5 -4 -10 -10 -10 -5 0 -10
-5 -10 -10 0 -11 -11 -26 -47 -66 -12 -13 -19 -24 -15 -25 84 -9 486 -17 605
-11 47 3 65 7 61 15 -5 8 -2 8 7 0 18 -18 103 -18 93 0 -6 9 -4 9 7 1 16 -12
157 -12 177 0 6 4 12 3 12 -2 0 -8 73 -6 98 3 7 3 11 1 8 -4 -3 -5 5 -8 19 -7
14 0 25 5 25 9 0 4 8 4 17 -1 10 -5 29 -6 43 -2 14 4 35 3 46 -1 12 -4 25 -5
28 -2 8 8 68 8 89 0 10 -4 17 -3 17 1 0 4 55 6 122 4 104 -2 189 -3 258 -2 8
0 75 -1 148 -3 74 -1 136 1 138 5 3 5 11 5 17 1 17 -11 170 -11 184 -1 6 5 14
5 16 1 3 -5 88 -10 189 -11 447 -7 567 -10 577 -16 6 -4 11 -2 11 4 0 6 5 8
11 4 6 -4 86 -8 178 -9 138 -1 169 1 186 14 17 14 18 14 8 1 -10 -14 2 -16
105 -18 64 -2 154 -4 200 -5 45 -1 82 2 82 6 0 5 5 5 12 1 14 -9 588 -15 589
-6 1 17 0 208 -1 217 -2 6 -1 15 0 20 1 6 4 185 5 398 2 214 6 391 9 394 3 3
1 14 -5 25 -5 10 -7 23 -3 29 12 20 12 379 0 379 -7 0 -7 3 1 8 7 4 12 16 12
27 0 11 0 101 0 200 0 198 -5 365 -13 407 -2 15 0 30 5 34 5 3 6 10 3 16 -4 6
-8 47 -10 92 -2 44 -5 146 -8 226 -3 80 -6 156 -6 170 -1 23 -2 23 -10 5 -5
-11 -9 -15 -10 -10 -3 17 -10 136 -15 269 -2 71 -6 131 -9 134 -3 2 -1 13 4
23 6 10 7 20 3 22 -5 3 -7 56 -5 119 3 119 4 369 1 378 -1 3 0 10 1 15 3 13 0
587 -3 648 -2 26 0 47 5 47 4 0 5 7 1 16 -8 22 -9 304 -1 304 4 0 3 11 -2 24
-5 13 -6 27 -3 30 11 10 11 290 0 304 -6 8 -6 12 0 12 9 0 8 109 -1 153 -2 9
0 14 5 11 5 -3 9 7 8 23 -1 15 2 63 5 106 5 62 4 77 -6 71 -10 -5 -10 -4 -2 5
7 8 10 50 7 119 -2 59 -4 173 -6 255 -2 168 -8 159 89 156 101 -2 184 3 190
13 3 5 11 5 17 0 7 -4 17 -8 22 -7 113 14 142 18 150 23 5 3 21 7 35 9 29 4
48 8 70 15 8 3 39 13 68 22 56 18 183 75 192 85 3 3 17 12 33 20 15 8 27 18
27 23 0 4 6 8 14 8 8 0 52 37 98 83 82 80 151 157 142 157 -3 0 4 10 16 22 33
35 100 155 102 182 1 13 6 22 10 20 5 -3 11 8 14 25 4 17 10 31 14 31 4 0 10
10 13 23 3 12 8 31 12 42 7 24 19 22 -220 29 -114 3 -164 1 -174 -7 -8 -7 -12
-7 -8 -1 4 7 -36 10 -129 10 -75 -1 -137 -2 -138 -3z m-2312 -738 c12 -5 17
-5 13 2 -3 5 0 10 8 10 8 0 12 -4 10 -8 -3 -3 43 -7 101 -7 73 0 109 -4 114
-12 4 -7 13 -9 19 -5 7 3 71 8 144 10 73 3 177 7 232 10 94 6 199 8 219 6 5
-1 4 -7 -2 -14 -6 -7 -9 -63 -8 -142 2 -72 1 -121 -1 -110 -9 37 -21 37 -16 0
3 -21 -1 -48 -7 -61 -12 -21 -11 -47 3 -204 1 -14 -1 -30 -6 -37 -5 -7 -5 -17
-1 -24 9 -15 13 -79 4 -79 -11 0 -8 -34 4 -49 8 -11 8 -13 -1 -7 -10 5 -13 -8
-13 -58 0 -42 4 -66 13 -69 9 -3 9 -11 -1 -40 -7 -20 -15 -46 -17 -58 -2 -11
-9 -26 -14 -33 -10 -12 -7 -68 5 -87 3 -6 8 -23 10 -37 1 -15 6 -47 10 -71 4
-30 3 -41 -5 -37 -7 4 -11 -2 -11 -16 0 -55 -5 -78 -15 -78 -8 0 -9 16 -5 50
4 28 4 53 0 55 -3 2 -7 -11 -9 -28 -1 -18 -4 -48 -6 -67 -13 -121 -19 -252
-19 -450 0 -227 5 -308 24 -390 6 -25 13 -61 16 -80 3 -19 7 -41 9 -48 3 -7 0
-10 -5 -7 -6 3 -12 0 -15 -7 -8 -22 -27 -169 -29 -225 0 -18 -3 -33 -6 -33 -3
0 -5 -29 -6 -65 0 -40 4 -65 10 -65 6 0 4 -5 -4 -10 -8 -5 -10 -10 -5 -10 6 0
11 -28 11 -63 1 -34 4 -89 8 -122 6 -60 15 -222 20 -366 1 -41 6 -81 11 -89 5
-8 4 -11 -2 -7 -8 5 -10 -43 -3 -78 1 -5 1 -12 0 -15 -6 -15 -4 -67 3 -63 9 5
8 -6 -2 -32 -5 -11 -4 -28 1 -38 6 -11 5 -17 -2 -17 -6 0 -8 -4 -5 -10 10 -16
15 -50 7 -50 -4 0 -7 -13 -7 -30 0 -16 3 -30 6 -30 4 0 3 -16 -1 -35 -5 -21
-4 -35 2 -35 5 0 6 -5 2 -11 -10 -16 -11 -109 -1 -109 5 0 5 -6 0 -12 -4 -7
-8 -62 -9 -123 -1 -60 -5 -200 -9 -310 -3 -110 -8 -299 -10 -420 -2 -121 -4
-228 -5 -238 0 -17 -14 -18 -251 -13 -138 3 -254 8 -259 11 -5 3 -11 1 -15 -5
-4 -6 -11 -7 -17 -4 -8 5 -116 13 -213 15 -68 2 -145 -5 -145 -13 0 -6 -6 -5
-15 2 -8 6 -19 9 -25 5 -15 -9 -103 -10 -117 -2 -6 4 -14 1 -16 -5 -3 -7 -6
-3 -6 9 -1 12 -5 24 -10 28 -6 3 -8 15 -6 27 3 12 -3 27 -13 35 -9 8 -12 12
-6 9 12 -6 26 28 16 38 -2 3 -5 38 -6 78 -1 40 -5 79 -10 87 -6 9 -5 12 1 8
16 -10 24 18 10 33 -9 10 -9 11 0 6 9 -5 11 7 7 50 -2 31 -7 61 -10 65 -3 5
-2 9 3 9 4 0 7 51 6 112 -3 163 -2 530 1 620 2 52 -1 78 -8 78 -7 0 -7 3 -1 8
6 4 11 32 12 62 8 196 8 260 1 260 -5 0 -6 6 -1 13 11 17 11 29 0 51 -5 10 -5
16 0 13 4 -3 7 9 6 26 -1 18 -2 32 -3 32 -1 0 -4 34 -5 75 -2 41 -4 77 -4 80
0 3 -2 167 -4 366 -2 198 -7 366 -11 372 -3 6 -2 13 4 17 6 4 8 10 5 15 -3 4
-8 104 -11 221 -8 266 -12 373 -14 377 -5 6 -3 60 3 75 3 9 3 18 -1 21 -4 2
-7 27 -6 55 0 28 -2 48 -6 46 -4 -2 -7 15 -7 38 0 23 -3 76 -7 117 -4 41 -9
104 -11 140 -2 36 -4 65 -5 65 -1 0 -3 61 -4 135 -3 129 -13 246 -23 263 -2 4
1 7 7 7 6 0 8 5 3 13 -4 6 -8 176 -8 377 l0 365 24 5 c39 8 394 3 415 -5z
m1594 -60 c-3 -3 -9 2 -12 12 -6 14 -5 15 5 6 7 -7 10 -15 7 -18z m-801 -1277
c-3 -8 -6 -5 -6 6 -1 11 2 17 5 13 3 -3 4 -12 1 -19z m3 -33 c0 -8 -2 -15 -4
-15 -2 0 -6 7 -10 15 -3 8 -1 15 4 15 6 0 10 -7 10 -15z m0 -35 c0 -5 -2 -10
-4 -10 -3 0 -8 5 -11 10 -3 6 -1 10 4 10 6 0 11 -4 11 -10z m9 -135 c-4 -5 -8
-13 -8 -17 -1 -5 -4 -8 -8 -8 -6 0 -8 91 -3 130 1 8 7 -10 14 -40 6 -30 9 -59
5 -65z m-1895 -630 c-4 -8 -8 -15 -10 -15 -2 0 -4 7 -4 15 0 8 4 15 10 15 5 0
7 -7 4 -15z m2763 -1195 c-2 -11 -6 -22 -9 -26 -4 -3 -5 2 -3 13 2 10 4 21 4
26 1 4 3 7 6 7 3 0 4 -9 2 -20z m-2802 -909 c3 -5 2 -12 -3 -15 -5 -3 -9 1 -9
9 0 17 3 19 12 6z m-38 -156 c0 -8 -4 -12 -9 -9 -5 3 -6 10 -3 15 9 13 12 11
12 -6z"/>
<path d="M2110 5798 c-6 -37 -3 -152 3 -161 6 -8 7 -6 3 6 -3 9 -1 17 5 17 7
0 9 14 5 38 -3 20 -7 52 -8 70 -2 26 -6 43 -8 30z"/>
</g>
</svg>
